<svg viewBox="0 0 66 16" xmlns="http://www.w3.org/2000/svg"><path d="M13.054 10.495c-1.03 0-1.825-.775-1.825-1.825 0-1.004.795-1.78 1.825-1.78 1.029 0 1.824.776 1.824 1.78.047 1.05-.795 1.825-1.824 1.825zm3.368-3.65V5.613h-2.245a3.218 3.218 0 0 0-1.123-.183c-1.919 0-3.416 1.415-3.416 3.286 0 1.87 1.497 3.285 3.416 3.285 1.918 0 3.415-1.414 3.415-3.285 0-.639-.187-1.232-.515-1.689l.468-.182zm-10.76 3.65c-1.03 0-1.825-.775-1.825-1.825 0-1.004.795-1.78 1.824-1.78 1.03 0 1.825.776 1.825 1.78 0 1.05-.795 1.825-1.825 1.825zm0-5.065c-1.919 0-3.416 1.415-3.416 3.286C2.246 10.586 3.743 12 5.66 12c1.919 0 3.416-1.414 3.416-3.285 0-1.871-1.497-3.286-3.416-3.286zM0 11.82h1.59V3.012H0v8.807zm17.124 0h1.59V5.613h-1.59v6.206zm-4.07 2.19c-1.03 0-1.825-.776-1.825-1.78h-1.59c0 1.872 1.496 3.286 3.415 3.286 1.918 0 3.415-1.415 3.415-3.285h-1.59c0 1.05-.796 1.78-1.825 1.78zm11.51-5.932c.233-.821.841-1.278 1.684-1.278.842 0 1.45.457 1.637 1.278h-3.322zm1.73-2.647c-1.918 0-3.368 1.415-3.368 3.332 0 1.87 1.31 3.24 3.368 3.24 1.123 0 2.153-.411 2.901-1.187l-1.076-1.05c-.515.502-1.076.822-1.778.822-.889 0-1.544-.502-1.731-1.278h4.96v-.365c0-2.1-1.357-3.514-3.276-3.514zm14.083 0c-.795 0-1.45.274-1.918.776v-3.24h-1.59v8.853h1.59V8.442c0-.913.561-1.506 1.544-1.506.889 0 1.404.548 1.404 1.506v3.377h1.59v-3.65c0-1.735-1.123-2.739-2.62-2.739zM33.5 6.936c.655 0 1.216.32 1.637.822l1.123-1.05c-.608-.776-1.59-1.232-2.714-1.232-1.918 0-3.415 1.415-3.415 3.285 0 1.871 1.497 3.286 3.415 3.286 1.123 0 2.106-.502 2.714-1.232L35.137 9.72c-.421.456-.982.821-1.637.821-1.03 0-1.778-.776-1.778-1.78-.047-1.05.748-1.825 1.778-1.825zm-11.65-3.24h-1.591v1.917h-.842v1.369h.842v4.837h1.59V6.982h.89v-1.37h-.89V3.697zm-3.93-.867c-.562 0-1.03.457-1.03 1.05 0 .547.468 1.004 1.03 1.004.608 0 1.076-.457 1.076-1.004 0-.593-.468-1.05-1.076-1.05zM55.068 0v3.149c-2.526 0-4.538 1.962-4.538 4.426 0 2.419 2.012 4.426 4.538 4.426v3.15c-4.304 0-7.813-3.378-7.813-7.576C47.255 3.377 50.764 0 55.068 0zm.094 6.206V9.31h3.743v3.65h3.181V6.207h-6.924z"/><path d="M62.24 13.991h1.022v.208h-.409v1.35h-.204V14.2h-.409v-.208zm2.043 1.247h-.153l-.46-.727v1.039h-.204v-1.56h.153l.613.935.562-.935h.153v1.559h-.204v-1.04l-.46.728z" fill="#878787"/></svg>