<svg xmlns="http://www.w3.org/2000/svg" viewBox="0 0 100.1 100.1" style="enable-background:new 0 0 100.1 100.1" xml:space="preserve"><path d="M96.3 3.8c-2.5-2.5-5.5-3.8-9-3.8H12.8c-3.5 0-6.5 1.3-9 3.8S0 9.3 0 12.8v74.4c0 3.5 1.3 6.5 3.8 9.1 2.5 2.5 5.5 3.8 9.1 3.8h74.4c3.5 0 6.5-1.3 9.1-3.8 2.5-2.5 3.8-5.5 3.8-9.1V12.8c-.1-3.5-1.3-6.5-3.9-9zM35.9 36.1c3.9-3.8 8.7-5.7 14.2-5.7 5.6 0 10.3 1.9 14.2 5.7 3.9 3.8 5.9 8.4 5.9 13.8s-2 10-5.9 13.8c-3.9 3.8-8.7 5.7-14.2 5.7s-10.2-1.9-14.2-5.7C32 59.8 30 55.2 30 49.9c0-5.4 2-10 5.9-13.8zm52.9 48.5c0 1.1-.4 2.1-1.2 2.8-.8.8-1.7 1.1-2.8 1.1H15.1c-1.1 0-2.1-.4-2.8-1.1-.8-.8-1.1-1.7-1.1-2.8V42.4h9.2c-.9 2.7-1.3 5.6-1.3 8.5 0 8.3 3 15.5 9.1 21.3 6.1 5.9 13.4 8.8 22 8.8 5.6 0 10.9-1.3 15.6-4 4.8-2.7 8.6-6.4 11.3-11 2.8-4.6 4.2-9.7 4.2-15.2 0-3-.4-5.8-1.3-8.5h8.8v42.3zm0-58.2c0 1.3-.4 2.3-1.3 3.2-.9.9-1.9 1.3-3.2 1.3H72.9c-1.3 0-2.3-.4-3.2-1.3-.9-.9-1.3-1.9-1.3-3.2V15.6c0-1.2.4-2.3 1.3-3.2.9-.9 1.9-1.3 3.2-1.3h11.3c1.3 0 2.3.4 3.2 1.3.9.9 1.3 1.9 1.3 3.2v10.8zm0 0" style="fill:#fff"/></svg>