<svg viewBox="0 0 46 21" xmlns="http://www.w3.org/2000/svg"><g clip-path="url(#a)" fill="#878787"><path d="M0 0v21h46V0H0zm29.093 4.947H30.5l1.879 5.252h-1.166L30.768 9H28.81l-.445 1.199H27.2l1.893-5.252zM9.523 7.94c0 .208-.006.395-.014.547a2.372 2.372 0 0 1-.056.416 1.363 1.363 0 0 1-.106.326 1.944 1.944 0 0 1-.163.284c-.367.512-.982.769-1.843.769-.862 0-1.477-.257-1.844-.77a1.944 1.944 0 0 1-.163-.283 1.776 1.776 0 0 1-.106-.326 3.305 3.305 0 0 1-.056-.416 10.51 10.51 0 0 1-.015-.554V4.947h1.145V7.96c0 .27.028.492.078.658a.82.82 0 0 0 .325.436c.162.125.374.187.628.187.255 0 .467-.062.63-.187a.875.875 0 0 0 .324-.436c.05-.173.078-.388.078-.658V4.947h1.144V7.94h.015zm4.55 2.259h-3.567V4.947h1.144v4.178h2.423v1.074zm-.537-4.29v-.962h4.282v.963h-1.569v4.289h-1.144v-4.29h-1.569zm4.65 10.29h-3.081v-4.462h3.017v.817H16.08v.956h1.886v.839H16.08v.935h2.105v.915zm.395-11.252h1.166v5.252H18.58V4.947zm3.56 11.252-.374-1.019H20.1l-.375 1.019h-.989l1.597-4.462h1.194l1.597 4.462h-.982zm-.169-10.29h-.064v4.29h-1.017V4.947h1.83l1.017 3.727h.064l1.017-3.727h1.83v5.252h-1.017v-4.29h-.064l-1.272 4.29h-1.052l-1.272-4.29zm4.154 10.29-.82-1.573h-.77v1.573h-.974v-4.462h1.766c.261 0 .502.027.713.083.212.055.396.138.544.256.149.118.262.257.347.437.077.173.12.38.12.623 0 .36-.064.652-.198.866-.134.215-.34.381-.622.506l1.06 1.698h-1.166v-.007zm5.108-1.268a1.313 1.313 0 0 1-.141.582c-.085.16-.198.298-.346.415a1.58 1.58 0 0 1-.544.264c-.22.055-.46.083-.735.083-.283 0-.537-.035-.77-.118a1.734 1.734 0 0 1-.587-.312 1.297 1.297 0 0 1-.367-.52 1.87 1.87 0 0 1-.12-.734h.968c.007.27.078.478.212.617.134.138.36.215.664.235.254.007.452-.02.593-.097.142-.069.22-.166.248-.284a.387.387 0 0 0-.05-.318c-.063-.09-.19-.174-.395-.243-.205-.07-.566-.208-1.088-.402-.7-.27-1.046-.672-1.025-1.205.007-.18.05-.354.134-.506a1.26 1.26 0 0 1 .354-.395c.148-.11.325-.194.53-.25a2.41 2.41 0 0 1 .699-.09 2.048 2.048 0 0 1 1.286.389c.148.117.268.263.346.43.078.165.12.36.12.574h-.968c.007-.194-.056-.34-.198-.443-.14-.097-.332-.146-.586-.153-.226-.007-.403.021-.53.09a.406.406 0 0 0-.219.305c-.014.125.035.236.163.319.127.083.31.173.565.263l.6.208c.488.18.813.36.968.547.156.188.226.437.22.749zm.912.734h-.198v.527h-.1v-.527h-.197v-.083h.495v.083zm.678.527h-.1v-.5h-.006l-.149.5h-.084l-.149-.5h-.007v.5h-.099v-.61h.177l.12.436h.007l.12-.436h.177v.61h-.007zM36.512 5.91h-1.569v4.289H33.8v-4.29h-1.57v-.962h4.282v.963zm4.295 4.289h-3.624V4.947h3.547v.963h-2.403v1.122h2.219v.991h-2.219v1.102h2.48v1.074z"/><path d="M25.433 12.554h-.897v1.199h.897c.248 0 .424-.049.537-.16.113-.103.17-.249.17-.443s-.057-.34-.17-.443c-.106-.104-.29-.153-.537-.153zm-4.527 0-.615 1.795h1.286l-.615-1.795h-.056zm8.922-6.644h-.056l-.728 2.113h1.512l-.728-2.113z"/></g><defs><clipPath id="a"><path fill="#fff" d="M0 0h46v21H0z"/></clipPath></defs></svg>