<svg viewBox="0 0 75 13" xmlns="http://www.w3.org/2000/svg"><path fill-rule="evenodd" clip-rule="evenodd" d="M3.067 7.472c0-1.542 0-2.313.3-2.902a2.754 2.754 0 0 1 1.204-1.203c.589-.3 1.36-.3 2.901-.3h2.203c1.541 0 2.312 0 2.901.3.518.263.94.685 1.204 1.203.3.59.3 1.36.3 2.902V8.1c0 1.542 0 2.313-.3 2.901a2.753 2.753 0 0 1-1.204 1.204c-.589.3-1.36.3-2.901.3h-4.09c-.882 0-1.322 0-1.658-.171a1.568 1.568 0 0 1-.688-.688c-.17-.336-.17-.776-.17-1.657V7.472h-.002zM7 7.786a.786.786 0 1 1 1.573 0V9.36A.786.786 0 1 1 7 9.36V7.786zM10.933 7a.786.786 0 0 0-.786.786V9.36a.786.786 0 1 0 1.573 0V7.786A.786.786 0 0 0 10.933 7zM5.815.69a.787.787 0 0 1-.683.877 3.44 3.44 0 0 0-.598.122A4.332 4.332 0 0 0 1.69 4.533c-.053.169-.092.36-.122.598a.787.787 0 0 1-1.562-.195c.039-.31.096-.595.182-.871A5.906 5.906 0 0 1 4.066.188c.276-.087.561-.144.871-.182a.787.787 0 0 1 .878.683z" fill="#09161D"/><path d="M21.38 5.148c-1.135 0-2.158.705-2.158 1.762 0 .991.914 1.322 1.817 1.453.595.089.815.132.815.352 0 .199-.176.297-.451.297-.694 0-.947-.253-1.52-.253-.496 0-.683.363-.683.826 0 .495.892.847 2.016.847 1.486 0 2.268-.671 2.268-1.762 0-1.013-.76-1.41-1.938-1.575-.385-.055-.705-.055-.705-.286 0-.21.265-.309.595-.309.375 0 .837.22 1.2.22.474 0 .672-.308.672-.76 0-.308-.198-.484-.43-.584-.408-.173-.87-.228-1.498-.228zm3.03 1.619h.375c.011.517-.01 1.056-.01 1.575 0 1.453.77 2.048 1.783 2.048.572 0 .804-.045 1.057-.22.199-.132.297-.32.297-.738 0-.352-.231-.705-.627-.705-.166 0-.21.055-.43.055-.286 0-.364-.33-.364-.595V6.756h.76c.396 0 .595-.352.595-.76 0-.507-.265-.76-.716-.75h-.627c.01-.374.021-.627.021-.836 0-.42-.275-.683-.726-.683-.627 0-.958.33-.98.947l-.022.584h-.341c-.407 0-.682.32-.682.738 0 .463.175.77.638.77zm4.29-.771v.99c0 .75-.022 1.719-.022 2.567 0 .65.385.826.88.826.496 0 .903-.199.915-.716.022-.419-.021-1.012-.021-1.42 0-1.068.43-1.399 1.012-1.399h.144c.474 0 .694-.451.694-.87 0-.572-.265-.826-.76-.826-.485 0-1.025.33-1.222.782l-.077-.275c-.088-.31-.32-.463-.66-.463-.553 0-.884.276-.884.804zm5.704 2.246c1.355-.01 2.07-.033 2.29-.033.738-.01.893-.309.893-.97 0-1.057-.947-2.092-2.357-2.092-1.487 0-2.654 1.146-2.654 2.764 0 1.398 1.157 2.511 2.61 2.511.892 0 1.387-.154 1.772-.385.265-.155.407-.397.407-.661 0-.451-.319-.848-.715-.848-.199 0-.375.056-.562.155-.176.1-.485.198-.792.198-.363 0-.815-.209-.892-.639zm.804-1.696c.386 0 .683.242.683.562 0 .044-.066.055-.132.055-.44.01-.947.033-1.366.033.033-.33.375-.65.815-.65zm8.486.287.011-.847c0-.506-.275-.782-.837-.782-.275 0-.517.077-.66.276a.85.85 0 0 0-.132.286c-.265-.375-.727-.584-1.233-.584-1.476 0-2.61 1.035-2.61 2.72 0 1.43.947 2.499 2.478 2.499.584 0 1.057-.276 1.322-.705.143.495.385.671.77.671.507 0 .926-.132.926-.749-.022-.375-.034-.75-.034-1.123V6.833zM40.06 7.857c0-.737.386-1.145.947-1.145.496 0 .947.374.947 1.067 0 .694-.462 1.112-1.002 1.112-.517.001-.892-.45-.892-1.034zm4.868-.297-.011 1.322c-.022.517-.011.561-.011.705 0 .606.451.781.881.781.496 0 .936-.209.936-.704V7.79c-.01-.55.11-1.145.738-1.145.418 0 .616.462.616.848.01 1.035-.022 1.343-.022 2.158 0 .474.352.705.86.716.484.01.902-.187.925-.672.01-.352.01-.75.01-1.057 0-.451 0-.815.011-1.266a.7.7 0 0 1 .695-.705c.451 0 .561.396.561.826 0 .891-.033 1.53-.033 2.169 0 .43.352.704.902.704.33 0 .87-.088.903-.65.021-.44.021-.836.021-1.222l-.01-1.233c0-1.277-.617-2.136-2.016-2.113-.529.01-1.156.34-1.476.792-.275-.462-.749-.792-1.476-.792-.529 0-1.09.351-1.288.715l-.044-.198c-.066-.286-.352-.517-.75-.517-.616 0-.935.275-.935.781.002.353.034.595.013 1.63zm9.185-4.372c-.022 1.817-.055 4.218-.011 5.98.01.99.407 1.266 1.024 1.2.65-.066.837-.308.86-.836.01-.364-.022-.782-.022-1.245 0-1.718 0-3.392.034-5.1.01-.55-.364-.814-.947-.814-.509 0-.928.253-.938.815zm8.261 3.645.01-.847c0-.506-.275-.782-.836-.782-.275 0-.517.077-.66.276a.85.85 0 0 0-.132.286c-.265-.375-.727-.584-1.233-.584-1.476 0-2.61 1.035-2.61 2.72 0 1.43.947 2.499 2.478 2.499.584 0 1.057-.276 1.321-.705.144.495.386.671.771.671.507 0 .925-.132.925-.749-.021-.375-.033-.75-.033-1.123V6.833h-.001zM58.74 7.857c0-.737.385-1.145.947-1.145.495 0 .947.374.947 1.067 0 .694-.462 1.112-1.002 1.112-.517.001-.892-.45-.892-1.034zm4.868-4.713.023 4.427-.034 1.861c-.01.572.199.903.705.925.451.022.76-.11.86-.529l.033-.143c.254.44.792.726 1.355.726 1.563 0 2.621-1.2 2.621-2.697 0-1.421-.991-2.567-2.444-2.567-.55 0-1.068.165-1.355.617 0-.011 0-.165.033-2.687.011-.65-.451-.771-.936-.771-.486 0-.85.233-.861.838zm3.756 4.581c0 .683-.507 1.178-1.025 1.178-.495 0-.947-.44-.947-1.09 0-.771.474-1.112 1.036-1.112.484 0 .936.385.936 1.024zm4.722-2.577c-1.135 0-2.158.705-2.158 1.762 0 .991.914 1.322 1.817 1.453.595.089.815.132.815.352 0 .199-.176.297-.451.297-.694 0-.947-.253-1.52-.253-.496 0-.683.363-.683.826 0 .495.892.847 2.016.847 1.487 0 2.268-.671 2.268-1.762 0-1.013-.76-1.41-1.938-1.575-.385-.055-.705-.055-.705-.286 0-.21.265-.309.595-.309.375 0 .837.22 1.2.22.475 0 .672-.308.672-.76 0-.308-.198-.484-.43-.584-.409-.173-.87-.228-1.498-.228z" fill="#09161D"/></svg>